<mxfile host="app.diagrams.net" modified="2024-02-02T14:31:56.957Z" agent="Mozilla/5.0 (Windows NT 10.0; Win64; x64; rv:121.0) Gecko/20100101 Firefox/121.0" etag="pQ_ELLtSGN7elI_wzJax" version="23.0.2" type="device">
  <diagram name="Pagina-1" id="PaYXS4ldTpePjklcSmy4">
    <mxGraphModel dx="763" dy="459" grid="0" gridSize="10" guides="1" tooltips="1" connect="1" arrows="1" fold="1" page="1" pageScale="1" pageWidth="827" pageHeight="1169" math="0" shadow="0">
      <root>
        <mxCell id="0" />
        <mxCell id="1" parent="0" />
        <mxCell id="P-k6SMPHdyf8jcMQoKpu-56" style="edgeStyle=orthogonalEdgeStyle;rounded=0;orthogonalLoop=1;jettySize=auto;html=1;exitX=0.5;exitY=1;exitDx=0;exitDy=0;" edge="1" parent="1" source="5T3qXllgy87Zn4Q4jWy5-8">
          <mxGeometry relative="1" as="geometry">
            <mxPoint x="445" y="548.2" as="targetPoint" />
          </mxGeometry>
        </mxCell>
        <mxCell id="5T3qXllgy87Zn4Q4jWy5-8" value="" style="rounded=0;whiteSpace=wrap;html=1;" parent="1" vertex="1">
          <mxGeometry x="390" y="139" width="110" height="410" as="geometry" />
        </mxCell>
        <mxCell id="S9pwn4ESXyOmxC7xWbH2-3" value="" style="ellipse;whiteSpace=wrap;html=1;" parent="1" vertex="1">
          <mxGeometry x="399" y="201" width="90" height="30" as="geometry" />
        </mxCell>
        <mxCell id="5T3qXllgy87Zn4Q4jWy5-12" value="Webshop NerdyGadgets" style="text;html=1;strokeColor=none;fillColor=none;align=center;verticalAlign=middle;whiteSpace=wrap;rounded=0;fontSize=8;" parent="1" vertex="1">
          <mxGeometry x="370" y="109" width="150" height="80" as="geometry" />
        </mxCell>
        <mxCell id="5T3qXllgy87Zn4Q4jWy5-13" value="Bekijken producten" style="text;html=1;strokeColor=none;fillColor=none;align=center;verticalAlign=middle;whiteSpace=wrap;rounded=0;fontSize=8;" parent="1" vertex="1">
          <mxGeometry x="404" y="201" width="80" height="30" as="geometry" />
        </mxCell>
        <mxCell id="iaaNNm-uUOiq8UuMti3a-2" value="" style="ellipse;whiteSpace=wrap;html=1;" parent="1" vertex="1">
          <mxGeometry x="399" y="163" width="90" height="30" as="geometry" />
        </mxCell>
        <mxCell id="iaaNNm-uUOiq8UuMti3a-3" value="Navigeren door producten" style="text;html=1;strokeColor=none;fillColor=none;align=center;verticalAlign=middle;whiteSpace=wrap;rounded=0;fontSize=8;" parent="1" vertex="1">
          <mxGeometry x="405.5" y="163" width="80" height="30" as="geometry" />
        </mxCell>
        <mxCell id="G08qufEcpgoM_vYvbx7a-3" value="" style="ellipse;whiteSpace=wrap;html=1;" parent="1" vertex="1">
          <mxGeometry x="399" y="241" width="90" height="30" as="geometry" />
        </mxCell>
        <mxCell id="G08qufEcpgoM_vYvbx7a-4" value="" style="ellipse;whiteSpace=wrap;html=1;" parent="1" vertex="1">
          <mxGeometry x="399" y="397" width="90" height="30" as="geometry" />
        </mxCell>
        <mxCell id="G08qufEcpgoM_vYvbx7a-10" value="Beheren winkelmandje" style="text;html=1;strokeColor=none;fillColor=none;align=center;verticalAlign=middle;whiteSpace=wrap;rounded=0;fontSize=8;" parent="1" vertex="1">
          <mxGeometry x="404" y="241.45" width="80" height="30" as="geometry" />
        </mxCell>
        <mxCell id="G08qufEcpgoM_vYvbx7a-11" value="Bekijken aanbevelingen" style="text;html=1;strokeColor=none;fillColor=none;align=center;verticalAlign=middle;whiteSpace=wrap;rounded=0;fontSize=8;" parent="1" vertex="1">
          <mxGeometry x="404" y="397" width="80" height="30" as="geometry" />
        </mxCell>
        <mxCell id="WqA3gAZD5SLCC9YRwfmF-26" value="" style="ellipse;whiteSpace=wrap;html=1;" parent="1" vertex="1">
          <mxGeometry x="400" y="474" width="90" height="30" as="geometry" />
        </mxCell>
        <mxCell id="WqA3gAZD5SLCC9YRwfmF-27" value="&lt;div&gt;Aanmaken account&lt;br&gt;&lt;/div&gt;" style="text;html=1;strokeColor=none;fillColor=none;align=center;verticalAlign=middle;whiteSpace=wrap;rounded=0;fontSize=8;" parent="1" vertex="1">
          <mxGeometry x="405" y="474" width="80" height="30" as="geometry" />
        </mxCell>
        <mxCell id="WqA3gAZD5SLCC9YRwfmF-43" value="" style="ellipse;whiteSpace=wrap;html=1;aspect=fixed;" parent="1" vertex="1">
          <mxGeometry x="560" y="304" width="20" height="20" as="geometry" />
        </mxCell>
        <mxCell id="WqA3gAZD5SLCC9YRwfmF-44" value="" style="endArrow=none;html=1;rounded=0;entryX=0.5;entryY=1;entryDx=0;entryDy=0;" parent="1" target="WqA3gAZD5SLCC9YRwfmF-43" edge="1">
          <mxGeometry width="50" height="50" relative="1" as="geometry">
            <mxPoint x="570" y="354" as="sourcePoint" />
            <mxPoint x="610" y="354" as="targetPoint" />
            <Array as="points">
              <mxPoint x="570" y="344" />
            </Array>
          </mxGeometry>
        </mxCell>
        <mxCell id="WqA3gAZD5SLCC9YRwfmF-45" value="" style="endArrow=none;html=1;rounded=0;" parent="1" edge="1">
          <mxGeometry width="50" height="50" relative="1" as="geometry">
            <mxPoint x="555" y="334" as="sourcePoint" />
            <mxPoint x="585" y="334" as="targetPoint" />
            <Array as="points" />
          </mxGeometry>
        </mxCell>
        <mxCell id="WqA3gAZD5SLCC9YRwfmF-46" value="" style="endArrow=none;html=1;rounded=0;" parent="1" edge="1">
          <mxGeometry width="50" height="50" relative="1" as="geometry">
            <mxPoint x="560" y="364" as="sourcePoint" />
            <mxPoint x="580" y="364" as="targetPoint" />
            <Array as="points">
              <mxPoint x="570" y="354" />
            </Array>
          </mxGeometry>
        </mxCell>
        <mxCell id="GTOzPJjOpPYZyw7FMu1k-3" value="" style="ellipse;whiteSpace=wrap;html=1;" parent="1" vertex="1">
          <mxGeometry x="400" y="435" width="90" height="30" as="geometry" />
        </mxCell>
        <mxCell id="GTOzPJjOpPYZyw7FMu1k-4" value="Toepassen kortingscode" style="text;html=1;strokeColor=none;fillColor=none;align=center;verticalAlign=middle;whiteSpace=wrap;rounded=0;fontSize=8;" parent="1" vertex="1">
          <mxGeometry x="404" y="435" width="80" height="30" as="geometry" />
        </mxCell>
        <mxCell id="GTOzPJjOpPYZyw7FMu1k-11" value="" style="ellipse;whiteSpace=wrap;html=1;" parent="1" vertex="1">
          <mxGeometry x="399" y="319" width="90" height="30" as="geometry" />
        </mxCell>
        <mxCell id="GTOzPJjOpPYZyw7FMu1k-12" value="Afrekenen bestelling" style="text;html=1;strokeColor=none;fillColor=none;align=center;verticalAlign=middle;whiteSpace=wrap;rounded=0;fontSize=8;" parent="1" vertex="1">
          <mxGeometry x="404" y="319" width="80" height="30" as="geometry" />
        </mxCell>
        <mxCell id="P-k6SMPHdyf8jcMQoKpu-4" style="edgeStyle=orthogonalEdgeStyle;rounded=0;orthogonalLoop=1;jettySize=auto;html=1;exitX=0.5;exitY=1;exitDx=0;exitDy=0;" edge="1" parent="1" source="5T3qXllgy87Zn4Q4jWy5-8" target="5T3qXllgy87Zn4Q4jWy5-8">
          <mxGeometry relative="1" as="geometry" />
        </mxCell>
        <mxCell id="P-k6SMPHdyf8jcMQoKpu-5" value="Bank" style="text;html=1;strokeColor=none;fillColor=none;align=center;verticalAlign=middle;whiteSpace=wrap;rounded=0;" vertex="1" parent="1">
          <mxGeometry x="540" y="356" width="60" height="30" as="geometry" />
        </mxCell>
        <mxCell id="P-k6SMPHdyf8jcMQoKpu-6" value="" style="endArrow=none;html=1;rounded=0;exitX=1;exitY=0.5;exitDx=0;exitDy=0;" edge="1" parent="1" source="GTOzPJjOpPYZyw7FMu1k-11">
          <mxGeometry width="50" height="50" relative="1" as="geometry">
            <mxPoint x="489" y="296" as="sourcePoint" />
            <mxPoint x="539" y="334" as="targetPoint" />
            <Array as="points" />
          </mxGeometry>
        </mxCell>
        <mxCell id="P-k6SMPHdyf8jcMQoKpu-11" value="" style="ellipse;whiteSpace=wrap;html=1;aspect=fixed;" vertex="1" parent="1">
          <mxGeometry x="135" y="251.45000000000002" width="20" height="20" as="geometry" />
        </mxCell>
        <mxCell id="P-k6SMPHdyf8jcMQoKpu-12" value="" style="endArrow=none;html=1;rounded=0;entryX=0.5;entryY=1;entryDx=0;entryDy=0;" edge="1" parent="1" target="P-k6SMPHdyf8jcMQoKpu-11">
          <mxGeometry width="50" height="50" relative="1" as="geometry">
            <mxPoint x="145" y="301.45" as="sourcePoint" />
            <mxPoint x="185" y="301.45" as="targetPoint" />
            <Array as="points">
              <mxPoint x="145" y="291.45000000000005" />
            </Array>
          </mxGeometry>
        </mxCell>
        <mxCell id="P-k6SMPHdyf8jcMQoKpu-13" value="" style="endArrow=none;html=1;rounded=0;" edge="1" parent="1">
          <mxGeometry width="50" height="50" relative="1" as="geometry">
            <mxPoint x="130" y="281.45000000000005" as="sourcePoint" />
            <mxPoint x="160" y="281.45000000000005" as="targetPoint" />
            <Array as="points" />
          </mxGeometry>
        </mxCell>
        <mxCell id="P-k6SMPHdyf8jcMQoKpu-14" value="" style="endArrow=none;html=1;rounded=0;" edge="1" parent="1">
          <mxGeometry width="50" height="50" relative="1" as="geometry">
            <mxPoint x="135" y="311.45" as="sourcePoint" />
            <mxPoint x="155" y="311.45" as="targetPoint" />
            <Array as="points">
              <mxPoint x="145" y="301.45" />
            </Array>
          </mxGeometry>
        </mxCell>
        <mxCell id="P-k6SMPHdyf8jcMQoKpu-19" value="" style="ellipse;whiteSpace=wrap;html=1;aspect=fixed;" vertex="1" parent="1">
          <mxGeometry x="132.5" y="401" width="20" height="20" as="geometry" />
        </mxCell>
        <mxCell id="P-k6SMPHdyf8jcMQoKpu-20" value="" style="endArrow=none;html=1;rounded=0;entryX=0.5;entryY=1;entryDx=0;entryDy=0;" edge="1" parent="1" target="P-k6SMPHdyf8jcMQoKpu-19">
          <mxGeometry width="50" height="50" relative="1" as="geometry">
            <mxPoint x="142.5" y="451" as="sourcePoint" />
            <mxPoint x="182.5" y="451" as="targetPoint" />
            <Array as="points">
              <mxPoint x="142.5" y="441" />
            </Array>
          </mxGeometry>
        </mxCell>
        <mxCell id="P-k6SMPHdyf8jcMQoKpu-21" value="" style="endArrow=none;html=1;rounded=0;" edge="1" parent="1">
          <mxGeometry width="50" height="50" relative="1" as="geometry">
            <mxPoint x="127.5" y="431" as="sourcePoint" />
            <mxPoint x="157.5" y="431" as="targetPoint" />
            <Array as="points" />
          </mxGeometry>
        </mxCell>
        <mxCell id="P-k6SMPHdyf8jcMQoKpu-22" value="" style="endArrow=none;html=1;rounded=0;" edge="1" parent="1">
          <mxGeometry width="50" height="50" relative="1" as="geometry">
            <mxPoint x="132.5" y="461" as="sourcePoint" />
            <mxPoint x="152.5" y="461" as="targetPoint" />
            <Array as="points">
              <mxPoint x="142.5" y="451" />
            </Array>
          </mxGeometry>
        </mxCell>
        <mxCell id="P-k6SMPHdyf8jcMQoKpu-23" value="" style="endArrow=none;html=1;rounded=0;entryX=0;entryY=0.5;entryDx=0;entryDy=0;" edge="1" parent="1" target="GTOzPJjOpPYZyw7FMu1k-3">
          <mxGeometry width="50" height="50" relative="1" as="geometry">
            <mxPoint x="170" y="281.45" as="sourcePoint" />
            <mxPoint x="310" y="201.45" as="targetPoint" />
          </mxGeometry>
        </mxCell>
        <mxCell id="P-k6SMPHdyf8jcMQoKpu-24" value="" style="endArrow=none;html=1;rounded=0;entryX=0;entryY=0.5;entryDx=0;entryDy=0;" edge="1" parent="1" target="iaaNNm-uUOiq8UuMti3a-2">
          <mxGeometry width="50" height="50" relative="1" as="geometry">
            <mxPoint x="170" y="281.45" as="sourcePoint" />
            <mxPoint x="409" y="186.45" as="targetPoint" />
          </mxGeometry>
        </mxCell>
        <mxCell id="P-k6SMPHdyf8jcMQoKpu-26" value="" style="endArrow=none;html=1;rounded=0;entryX=0;entryY=0.5;entryDx=0;entryDy=0;" edge="1" parent="1" target="GTOzPJjOpPYZyw7FMu1k-11">
          <mxGeometry width="50" height="50" relative="1" as="geometry">
            <mxPoint x="170" y="281.45" as="sourcePoint" />
            <mxPoint x="429" y="206.45" as="targetPoint" />
          </mxGeometry>
        </mxCell>
        <mxCell id="P-k6SMPHdyf8jcMQoKpu-27" value="" style="endArrow=none;html=1;rounded=0;entryX=0;entryY=0.5;entryDx=0;entryDy=0;" edge="1" parent="1" target="S9pwn4ESXyOmxC7xWbH2-3">
          <mxGeometry width="50" height="50" relative="1" as="geometry">
            <mxPoint x="170" y="281.45" as="sourcePoint" />
            <mxPoint x="439" y="216.45" as="targetPoint" />
          </mxGeometry>
        </mxCell>
        <mxCell id="P-k6SMPHdyf8jcMQoKpu-28" value="" style="endArrow=none;html=1;rounded=0;entryX=0;entryY=0.5;entryDx=0;entryDy=0;" edge="1" parent="1" target="G08qufEcpgoM_vYvbx7a-3">
          <mxGeometry width="50" height="50" relative="1" as="geometry">
            <mxPoint x="170" y="281.45" as="sourcePoint" />
            <mxPoint x="449" y="226.45" as="targetPoint" />
          </mxGeometry>
        </mxCell>
        <mxCell id="P-k6SMPHdyf8jcMQoKpu-29" value="" style="endArrow=none;html=1;rounded=0;entryX=0;entryY=0.5;entryDx=0;entryDy=0;" edge="1" parent="1" target="G08qufEcpgoM_vYvbx7a-4">
          <mxGeometry width="50" height="50" relative="1" as="geometry">
            <mxPoint x="170" y="281.45" as="sourcePoint" />
            <mxPoint x="459" y="236.45" as="targetPoint" />
          </mxGeometry>
        </mxCell>
        <mxCell id="P-k6SMPHdyf8jcMQoKpu-30" value="" style="endArrow=none;html=1;rounded=0;entryX=0;entryY=0.5;entryDx=0;entryDy=0;" edge="1" parent="1">
          <mxGeometry width="50" height="50" relative="1" as="geometry">
            <mxPoint x="170" y="281.45" as="sourcePoint" />
            <mxPoint x="399" y="296" as="targetPoint" />
          </mxGeometry>
        </mxCell>
        <mxCell id="P-k6SMPHdyf8jcMQoKpu-41" value="Bezoeker" style="text;html=1;strokeColor=none;fillColor=none;align=center;verticalAlign=middle;whiteSpace=wrap;rounded=0;" vertex="1" parent="1">
          <mxGeometry x="115" y="301.45" width="60" height="30" as="geometry" />
        </mxCell>
        <mxCell id="P-k6SMPHdyf8jcMQoKpu-42" value="Klant" style="text;html=1;strokeColor=none;fillColor=none;align=center;verticalAlign=middle;whiteSpace=wrap;rounded=0;" vertex="1" parent="1">
          <mxGeometry x="112.5" y="455" width="60" height="30" as="geometry" />
        </mxCell>
        <mxCell id="P-k6SMPHdyf8jcMQoKpu-44" value="" style="ellipse;whiteSpace=wrap;html=1;" vertex="1" parent="1">
          <mxGeometry x="399" y="358" width="90" height="30" as="geometry" />
        </mxCell>
        <mxCell id="P-k6SMPHdyf8jcMQoKpu-45" value="Bekijken populaire producten" style="text;html=1;strokeColor=none;fillColor=none;align=center;verticalAlign=middle;whiteSpace=wrap;rounded=0;fontSize=8;" vertex="1" parent="1">
          <mxGeometry x="404" y="358" width="80" height="30" as="geometry" />
        </mxCell>
        <mxCell id="P-k6SMPHdyf8jcMQoKpu-47" value="" style="endArrow=none;html=1;rounded=0;entryX=0;entryY=0.5;entryDx=0;entryDy=0;" edge="1" parent="1" target="P-k6SMPHdyf8jcMQoKpu-44">
          <mxGeometry width="50" height="50" relative="1" as="geometry">
            <mxPoint x="171" y="281" as="sourcePoint" />
            <mxPoint x="409" y="386" as="targetPoint" />
          </mxGeometry>
        </mxCell>
        <mxCell id="P-k6SMPHdyf8jcMQoKpu-49" value="" style="endArrow=none;html=1;rounded=0;entryX=0;entryY=0.5;entryDx=0;entryDy=0;" edge="1" parent="1" target="P-k6SMPHdyf8jcMQoKpu-57">
          <mxGeometry width="50" height="50" relative="1" as="geometry">
            <mxPoint x="174" y="433" as="sourcePoint" />
            <mxPoint x="399" y="296" as="targetPoint" />
          </mxGeometry>
        </mxCell>
        <mxCell id="P-k6SMPHdyf8jcMQoKpu-50" value="" style="ellipse;whiteSpace=wrap;html=1;" vertex="1" parent="1">
          <mxGeometry x="399" y="281" width="90" height="30" as="geometry" />
        </mxCell>
        <mxCell id="P-k6SMPHdyf8jcMQoKpu-51" value="Invullen gegevens" style="text;html=1;strokeColor=none;fillColor=none;align=center;verticalAlign=middle;whiteSpace=wrap;rounded=0;fontSize=8;" vertex="1" parent="1">
          <mxGeometry x="404" y="281" width="80" height="30" as="geometry" />
        </mxCell>
        <mxCell id="P-k6SMPHdyf8jcMQoKpu-52" value="" style="endArrow=none;html=1;rounded=0;" edge="1" parent="1" source="P-k6SMPHdyf8jcMQoKpu-53">
          <mxGeometry width="50" height="50" relative="1" as="geometry">
            <mxPoint x="145" y="392" as="sourcePoint" />
            <mxPoint x="145" y="347" as="targetPoint" />
          </mxGeometry>
        </mxCell>
        <mxCell id="P-k6SMPHdyf8jcMQoKpu-55" value="" style="endArrow=none;html=1;rounded=0;" edge="1" parent="1" target="P-k6SMPHdyf8jcMQoKpu-53">
          <mxGeometry width="50" height="50" relative="1" as="geometry">
            <mxPoint x="143" y="390" as="sourcePoint" />
            <mxPoint x="145" y="347" as="targetPoint" />
          </mxGeometry>
        </mxCell>
        <mxCell id="P-k6SMPHdyf8jcMQoKpu-53" value="" style="triangle;whiteSpace=wrap;html=1;direction=north;" vertex="1" parent="1">
          <mxGeometry x="135" y="336" width="15" height="13" as="geometry" />
        </mxCell>
        <mxCell id="P-k6SMPHdyf8jcMQoKpu-57" value="&lt;font style=&quot;font-size: 8px;&quot;&gt;Beheren account&lt;/font&gt;" style="ellipse;whiteSpace=wrap;html=1;" vertex="1" parent="1">
          <mxGeometry x="400.5" y="513" width="90" height="30" as="geometry" />
        </mxCell>
        <mxCell id="P-k6SMPHdyf8jcMQoKpu-59" value="" style="endArrow=none;html=1;rounded=0;entryX=0;entryY=0.5;entryDx=0;entryDy=0;" edge="1" parent="1" target="WqA3gAZD5SLCC9YRwfmF-26">
          <mxGeometry width="50" height="50" relative="1" as="geometry">
            <mxPoint x="170" y="282" as="sourcePoint" />
            <mxPoint x="411" y="538" as="targetPoint" />
          </mxGeometry>
        </mxCell>
      </root>
    </mxGraphModel>
  </diagram>
</mxfile>
